<svg width="16" height="16" viewBox="0 0 16 16" fill="none" xmlns="http://www.w3.org/2000/svg">
<rect width="16" height="16" rx="2" fill="#FF7528" fill-opacity="0.12"/>
<path d="M12.334 3.123L12.73 3.827C11.762 4.201 10.695 4.432 9.507 4.498V6.5H13.06V7.259H11.916V13.133H11.135V7.259H9.507V8.568C9.452 10.46 9.034 11.967 8.242 13.089L7.681 12.495C8.33 11.549 8.682 10.24 8.737 8.568V3.86C10.068 3.838 11.267 3.585 12.334 3.123ZM3.171 3.97H5.272C5.118 3.618 4.953 3.299 4.766 3.013L5.58 2.881C5.745 3.211 5.899 3.574 6.053 3.97H8.132V4.696H3.171V3.97ZM3.061 6.467H4.326C4.161 6.027 3.963 5.609 3.743 5.224L4.447 4.971C4.656 5.378 4.854 5.873 5.03 6.467H6.24C6.46 5.983 6.647 5.477 6.812 4.949L7.527 5.191C7.351 5.664 7.164 6.093 6.955 6.467H8.198V7.182H6.075V8.414H8.011V9.14H6.075V12.253C6.075 12.847 5.756 13.144 5.118 13.144H4.524L4.359 12.407C4.535 12.44 4.7 12.462 4.854 12.462C5.14 12.462 5.283 12.33 5.283 12.066V9.14H3.237V8.414H5.283V7.182H3.061V6.467ZM4.007 9.734L4.733 9.888C4.447 10.999 4.04 11.967 3.534 12.792L2.874 12.374C3.391 11.582 3.765 10.702 4.007 9.734ZM7.164 9.657C7.494 10.372 7.758 11.021 7.934 11.615L7.274 11.868C7.065 11.175 6.812 10.493 6.504 9.833L7.164 9.657Z" fill="#FF7528"/>
</svg>
